<svg width="10px" height="14px" viewBox="0 9 10 14" version="1.1" xmlns="http://www.w3.org/2000/svg" xmlns:xlink="http://www.w3.org/1999/xlink">
    <path d="M3.59045094e-05,21.2051583 L3.59045094e-05,9.78056786 C3.59045094e-05,9.50079322 0.144681878,9.24513709 0.383546789,9.11076257 C0.629710349,8.95158045 0.940898247,8.96536245 1.17379153,9.14315028 L9.64951478,14.8385625 C9.87709996,14.9708698 10.0117932,15.2265259 9.99918647,15.4980313 C10.0044946,15.7702259 9.87179185,16.025882 9.64951478,16.1685257 L1.17379153,21.8453323 C1.05236854,21.9314698 0.91236716,21.9831523 0.764403618,21.9990016 C0.627056295,22.0072708 0.492363026,21.9638575 0.380892734,21.8804764 C0.142027824,21.7461019 -0.00261815005,21.4849329 3.59045094e-05,21.2051583 L3.59045094e-05,21.2051583 Z" id="Page-1" stroke="none" fill="#FF8A17" fill-rule="evenodd" transform="translate(5.000000, 15.500000) scale(-1, 1) translate(-5.000000, -15.500000) "></path>
</svg>
