<svg width="1189px" height="388px" viewBox="0 -1 1189 388" version="1.1" xmlns="http://www.w3.org/2000/svg" xmlns:xlink="http://www.w3.org/1999/xlink">
    <circle id="Oval-5-Copy-18" stroke="none" fill="#00C7F5" fill-rule="evenodd" transform="translate(1150.000000, 39.000000) rotate(90.000000) translate(-1150.000000, -39.000000) " cx="1150" cy="39" r="39"></circle>
    <circle id="Oval-5-Copy-19" stroke="none" fill="#00C7F5" fill-rule="evenodd" transform="translate(1092.500000, 154.500000) rotate(90.000000) translate(-1092.500000, -154.500000) " cx="1092.5" cy="154.5" r="18.5"></circle>
    <circle id="Oval-5-Copy-20" stroke="none" fill="#00C7F5" fill-rule="evenodd" transform="translate(1064.000000, 18.000000) rotate(90.000000) translate(-1064.000000, -18.000000) " cx="1064" cy="18" r="9"></circle>
    <circle id="Oval-5-Copy-21" stroke="none" fill="#00C7F5" fill-rule="evenodd" transform="translate(756.000000, 115.000000) rotate(90.000000) translate(-756.000000, -115.000000) " cx="756" cy="115" r="38"></circle>
    <circle id="Oval-5-Copy-22" stroke="none" fill="#00C7F5" fill-rule="evenodd" transform="translate(40.000000, 176.000000) rotate(90.000000) translate(-40.000000, -176.000000) " cx="40" cy="176" r="40"></circle>
    <ellipse id="Oval-5-Copy-23" stroke="none" fill="#01C7F5" fill-rule="evenodd" transform="translate(163.640625, 318.390625) rotate(180.000000) translate(-163.640625, -318.390625) " cx="163.640625" cy="318.390625" rx="15.390625" ry="15.390625"></ellipse>
    <circle id="Oval-5-Copy-24" stroke="none" fill="#01C7F5" fill-rule="evenodd" transform="translate(782.000000, 339.000000) rotate(180.000000) translate(-782.000000, -339.000000) " cx="782" cy="339" r="19"></circle>
    <circle id="Oval-5-Copy-25" stroke="none" fill="#01C7F5" fill-rule="evenodd" transform="translate(697.000000, 378.000000) rotate(180.000000) translate(-697.000000, -378.000000) " cx="697" cy="378" r="9"></circle>
</svg>
