<svg width="554px" height="363px" viewBox="0 2169 554 363" version="1.1" xmlns="http://www.w3.org/2000/svg" xmlns:xlink="http://www.w3.org/1999/xlink">
    <g stroke="none" stroke-width="1" fill="none" fill-rule="evenodd" transform="translate(212.000000, 2423.500000) scale(-1, 1) translate(-212.000000, -2423.500000) translate(143.000000, 2366.000000)">
        <path d="M138,9 C138,13.9708558 133.970359,18 129.00032,18 C124.029641,18 120,13.9708558 120,9 C120,4.02914416 124.029641,0 129.00032,0 C133.970359,0 138,4.02914416 138,9" fill="#AACC00" transform="translate(129.000000, 9.000000) scale(-1, 1) translate(-129.000000, -9.000000) "></path>
        <path d="M106,62 C106,91.270559 82.2710267,115 53.0010447,115 C23.7289733,115 0,91.270559 0,62 C0,32.729441 23.7289733,9 53.0010447,9 C82.2710267,9 106,32.729441 106,62" fill="#AACC00" transform="translate(53.000000, 62.000000) scale(-1, 1) translate(-53.000000, -62.000000) "></path>
    </g>
    <path d="M50.733,2506.366 C50.733,2520.375 39.376,2531.732 25.367,2531.732 C11.357,2531.732 0,2520.375 0,2506.366 C0,2492.357 11.357,2481 25.367,2481 C39.376,2481 50.733,2492.357 50.733,2506.366" stroke="none" fill="#AACC00" fill-rule="evenodd"></path>
    <path d="M69,2291 C69,2307.01711 56.0171095,2320 40,2320 C23.9828905,2320 11,2307.01711 11,2291 C11,2274.98289 23.9828905,2262 40,2262 C56.0171095,2262 69,2274.98289 69,2291" stroke="none" fill="#AACC00" fill-rule="evenodd"></path>
    <path d="M553.733,2194.366 C553.733,2208.375 542.376,2219.732 528.367,2219.732 C514.357,2219.732 503,2208.375 503,2194.366 C503,2180.357 514.357,2169 528.367,2169 C542.376,2169 553.733,2180.357 553.733,2194.366" stroke="none" fill="#AACC00" fill-rule="evenodd"></path>
</svg>
