<svg width="1203px" height="318px" viewBox="40 120 1203 318" version="1.1" xmlns="http://www.w3.org/2000/svg" xmlns:xlink="http://www.w3.org/1999/xlink">
    <g id="Group-3" stroke="none" stroke-width="1" fill="none" fill-rule="evenodd" transform="translate(471.000000, 120.000000)">
        <circle id="Oval-5-Copy-18" fill="#00C7F5" transform="translate(732.000000, 40.000000) rotate(91.000000) translate(-732.000000, -40.000000) " cx="732" cy="40" r="39"></circle>
        <circle id="Oval-5-Copy-19" fill="#00C7F5" transform="translate(674.500000, 155.500000) rotate(91.000000) translate(-674.500000, -155.500000) " cx="674.5" cy="155.5" r="18.5"></circle>
        <circle id="Oval-5-Copy-20" fill="#00C7F5" transform="translate(646.000000, 19.000000) rotate(91.000000) translate(-646.000000, -19.000000) " cx="646" cy="19" r="9"></circle>
        <circle id="Oval-5-Copy-21" fill="#00C7F5" transform="translate(338.000000, 116.000000) rotate(91.000000) translate(-338.000000, -116.000000) " cx="338" cy="116" r="38"></circle>
        <ellipse id="Oval-5-Copy-22" fill="#00C7F5" transform="translate(40.000000, 89.000000) rotate(90.000000) translate(-40.000000, -89.000000) " cx="40" cy="89" rx="40" ry="40"></ellipse>
        <circle id="Oval-5-Copy-23" fill="#01C7F5" transform="translate(153.460938, 241.679688) rotate(180.000000) translate(-153.460938, -241.679688) " cx="153.460938" cy="241.679688" r="15.390625"></circle>
        <circle id="Oval-5-Copy-24" fill="#01C7F5" transform="translate(362.000000, 270.000000) rotate(180.000000) translate(-362.000000, -270.000000) " cx="362" cy="270" r="19"></circle>
        <circle id="Oval-5-Copy-25" fill="#01C7F5" transform="translate(277.000000, 309.000000) rotate(180.000000) translate(-277.000000, -309.000000) " cx="277" cy="309" r="9"></circle>
    </g>
</svg>
