<svg width="1455px" height="351px" viewBox="-2 69 1455 351" version="1.1" xmlns="http://www.w3.org/2000/svg" xmlns:xlink="http://www.w3.org/1999/xlink">
    <g opacity="0.35" stroke="none" stroke-width="1" fill="none" fill-rule="evenodd" transform="translate(1141.500000, 339.000000) scale(-1, 1) translate(-1141.500000, -339.000000) translate(1025.000000, 267.000000)">
        <path d="M233,9 C233,13.9708558 228.970359,18 224.00032,18 C219.029641,18 215,13.9708558 215,9 C215,4.02914416 219.029641,0 224.00032,0 C228.970359,0 233,4.02914416 233,9" fill="#FFFFFF" transform="translate(224.000000, 9.000000) scale(-1, 1) translate(-224.000000, -9.000000) "></path>
        <path d="M106,91 C106,120.270559 82.2710267,144 53.0010447,144 C23.7289733,144 0,120.270559 0,91 C0,61.729441 23.7289733,38 53.0010447,38 C82.2710267,38 106,61.729441 106,91" fill="#FFFFFF" transform="translate(53.000000, 91.000000) scale(-1, 1) translate(-53.000000, -91.000000) "></path>
    </g>
    <ellipse stroke="none" fill="#FFFFFF" fill-rule="evenodd" opacity="0.35" cx="1394" cy="161" rx="59" ry="59"></ellipse>
    <path d="M902,407.999763 C902,414.626929 896.627402,419.999527 890.000237,419.999527 C883.372598,419.999527 878,414.626929 878,407.999763 C878,401.372598 883.372598,396 890.000237,396 C896.627402,396 902,401.372598 902,407.999763" stroke="none" fill="#FFFFFF" fill-rule="evenodd" opacity="0.35" transform="translate(890.000000, 407.999763) scale(-1, 1) translate(-890.000000, -407.999763) "></path>
    <path d="M132.733,340.366 C132.733,354.375 121.376,365.732 107.367,365.732 C93.357,365.732 82,354.375 82,340.366 C82,326.357 93.357,315 107.367,315 C121.376,315 132.733,326.357 132.733,340.366" stroke="none" fill="#FFFFFF" fill-rule="evenodd" opacity="0.35" transform="translate(107.366500, 340.366000) scale(-1, 1) translate(-107.366500, -340.366000) "></path>
    <g opacity="0.35" stroke="none" stroke-width="1" fill="none" fill-rule="evenodd" transform="translate(119.500000, 139.000000) scale(-1, -1) rotate(90.000000) translate(-119.500000, -139.000000) translate(50.500000, 19.500000)">
        <g transform="translate(69.000000, 57.500000) scale(-1, -1) translate(-69.000000, -57.500000) " fill="#FFFFFF">
            <path d="M138,9 C138,13.9708558 133.970359,18 129.00032,18 C124.029641,18 120,13.9708558 120,9 C120,4.02914416 124.029641,2.84217094e-14 129.00032,2.84217094e-14 C133.970359,2.84217094e-14 138,4.02914416 138,9" transform="translate(129.000000, 9.000000) scale(-1, 1) translate(-129.000000, -9.000000) "></path>
            <path d="M106,62 C106,91.270559 82.2710267,115 53.0010447,115 C23.7289733,115 0,91.270559 0,62 C0,32.729441 23.7289733,9 53.0010447,9 C82.2710267,9 106,32.729441 106,62" transform="translate(53.000000, 62.000000) scale(-1, 1) translate(-53.000000, -62.000000) "></path>
        </g>
        <path d="M79,215 C79,228.255539 68.2555389,239 55,239 C41.7444611,239 31,228.255539 31,215 C31,201.744461 41.7444611,191 55,191 C68.2555389,191 79,201.744461 79,215" fill="#FFFFFF"></path>
    </g>
</svg>
