<svg width="1447px" height="342px" viewBox="-2 -1 1447 342" version="1.1" xmlns="http://www.w3.org/2000/svg" xmlns:xlink="http://www.w3.org/1999/xlink">
    <path d="M1258,288 C1258,317.270559 1234.27103,341 1205.00104,341 C1175.72897,341 1152,317.270559 1152,288 C1152,258.729441 1175.72897,235 1205.00104,235 C1234.27103,235 1258,258.729441 1258,288" stroke="none" fill="#FFFFFF" fill-rule="evenodd"></path>
    <g stroke="none" stroke-width="1" fill="none" fill-rule="evenodd" transform="translate(119.500000, 69.000000) scale(-1, -1) rotate(90.000000) translate(-119.500000, -69.000000) translate(50.500000, -50.500000)">
        <g transform="translate(69.000000, 57.500000) scale(-1, -1) translate(-69.000000, -57.500000) " fill="#FFFFFF">
            <path d="M138,9 C138,13.9708558 133.970359,18 129.00032,18 C124.029641,18 120,13.9708558 120,9 C120,4.02914416 124.029641,2.27373675e-13 129.00032,2.27373675e-13 C133.970359,2.27373675e-13 138,4.02914416 138,9" transform="translate(129.000000, 9.000000) scale(-1, 1) translate(-129.000000, -9.000000) "></path>
            <path d="M106,62 C106,91.270559 82.2710267,115 53.0010447,115 C23.7289733,115 0,91.270559 0,62 C0,32.729441 23.7289733,9 53.0010447,9 C82.2710267,9 106,32.729441 106,62" transform="translate(53.000000, 62.000000) scale(-1, 1) translate(-53.000000, -62.000000) "></path>
        </g>
        <path d="M79,215 C79,228.255539 68.2555389,239 55,239 C41.7444611,239 31,228.255539 31,215 C31,201.744461 41.7444611,191 55,191 C68.2555389,191 79,201.744461 79,215" fill="#FFFFFF"></path>
    </g>
    <g stroke="none" stroke-width="1" fill="none" fill-rule="evenodd" transform="translate(1324.500000, 101.000000) scale(1, -1) rotate(90.000000) translate(-1324.500000, -101.000000) translate(1255.500000, -18.500000)">
        <g transform="translate(69.000000, 57.500000) scale(-1, -1) translate(-69.000000, -57.500000) " fill="#FFFFFF">
            <path d="M138,9 C138,13.9708558 133.970359,18 129.00032,18 C124.029641,18 120,13.9708558 120,9 C120,4.02914416 124.029641,2.27373675e-13 129.00032,2.27373675e-13 C133.970359,2.27373675e-13 138,4.02914416 138,9" transform="translate(129.000000, 9.000000) scale(-1, 1) translate(-129.000000, -9.000000) "></path>
            <path d="M106,62 C106,91.270559 82.2710267,115 53.0010447,115 C23.7289733,115 0,91.270559 0,62 C0,32.729441 23.7289733,9 53.0010447,9 C82.2710267,9 106,32.729441 106,62" transform="translate(53.000000, 62.000000) scale(-1, 1) translate(-53.000000, -62.000000) "></path>
        </g>
        <path d="M79,215 C79,228.255539 68.2555389,239 55,239 C41.7444611,239 31,228.255539 31,215 C31,201.744461 41.7444611,191 55,191 C68.2555389,191 79,201.744461 79,215" fill="#FFFFFF"></path>
    </g>
</svg>
