<svg width="50px" height="50px" viewBox="0 0 50 50" version="1.1" xmlns="http://www.w3.org/2000/svg" xmlns:xlink="http://www.w3.org/1999/xlink">
    <g id="logo" stroke="none" stroke-width="1" fill-rule="evenodd" transform="translate(0.19 0.25)">
        <path d="M4.74719643,34.7078419 C3.33179795,35.2148767 1.91856664,34.4940401 1.41338493,33.1264056 C1.02534515,32.0759346 1.28483677,30.7632391 2.3906703,30.0752087 L2.86630989,31.363749 C2.43458427,31.6754074 2.3096861,32.22154 2.500056,32.7368887 C2.7732351,33.4771618 3.53163501,33.7815175 4.30292396,33.5047998 C5.21530791,33.1783112 5.40795906,32.3834361 5.17105176,31.7421432 C5.00531931,31.2931933 4.64168885,30.9669294 4.21954445,30.8936773 L4.55671247,31.8057332 L3.64398633,32.1326713 L2.86813489,30.0312799 L5.3501295,29.1416939 L5.66745068,30.0008331 L5.05025984,30.2222746 C5.21850166,30.2665405 5.95043913,30.5204511 6.30197899,31.4719419 C6.79746541,32.8133989 6.16259492,34.2003577 4.74719643,34.7078419" id="Fill-1" fill="inherit"></path>
        <polygon id="Fill-3" fill="inherit" points="1.04101021 24.7463356 1.2708771 27.3557105 2.10912948 27.2821614 1.98579447 25.883724 3.0194113 25.7929874 3.14252227 27.1917596 4.07890496 27.1100632 3.84870202 24.5003535 4.88937616 24.4092821 5.22476674 28.2154203 0.335726633 28.6435453 0 24.8370722"></polygon>
        <polygon id="Fill-4" fill="inherit" points="5.23448412 22.4562424 5.03614115 23.6620592 0 22.8582196 0.249238964 21.3402131 3.47385542 20.3628838 0.488112383 19.8863898 0.685989486 18.680573 5.72236357 19.4847571 5.48942996 20.9029868 2.20541543 21.9726297"></polygon>
        <polygon id="Fill-5" fill="inherit" points="4.05759511 13.3687488 2.97695343 15.7831133 3.77301496 16.1187751 4.35223151 14.8245923 5.333929 15.2386725 4.75471245 16.5325187 5.64347638 16.9076702 6.72446483 14.4933057 7.71275089 14.9101906 6.13623234 18.4314987 1.4927905 16.4735087 3.06930905 12.951864"></polygon>
        <path d="M7.65745167,11.9426216 L7.30011069,12.4136508 L8.68841792,13.4699637 L7.94791916,14.4463098 L3.98077466,11.427736 L5.23806445,9.76996381 C5.90543455,8.89044351 6.89136356,8.74486302 7.5884173,9.27581033 C8.01354161,9.59920861 8.32652772,10.1056647 8.16514426,10.8603366 L10.4495335,11.1479663 L9.614411,12.2498443 L7.65745167,11.9426216 Z M5.98333989,10.5433174 L5.56583552,11.0938577 L6.4383753,11.7578551 L6.85633459,11.2075426 C7.15760647,10.8098733 7.10108245,10.5075488 6.84018487,10.3089989 C6.5684829,10.1021334 6.28506669,10.1459898 5.98333989,10.5433174 L5.98333989,10.5433174 Z" id="Fill-6" fill="inherit"></path>
        <path d="M14.1815097,8.05072976 L13.1713194,8.87872225 L12.1759002,8.20554752 L11.1436094,9.0512819 L11.6202335,10.1493579 L10.6313542,10.9592695 L8.70794456,6.14342019 L9.82198415,5.23056044 L14.1815097,8.05072976 Z M10.1309384,6.74879152 L10.1092891,6.76653341 L10.6802908,8.07016673 L11.292336,7.56921263 L10.1309384,6.74879152 Z" id="Fill-8" fill="inherit"></path>
        <polygon id="Fill-9" fill="inherit" points="15.4359793 1.74352015 15.9455826 2.74012824 14.6290398 3.40795484 16.4206955 6.91222818 15.3173458 7.47222921 13.5256902 3.96830184 12.2031289 4.63993404 11.6935255 3.64297999"></polygon>
        <polygon id="Fill-10" fill="inherit" points="16.9182923 1.36525503 18.1295894 0.996297227 19.6550749 5.85755147 18.4437777 6.22685767"></polygon>
        <path d="M25.1148691,2.35452921 C25.2623459,3.87081105 24.2082099,5.07213821 22.7728366,5.21623287 C21.3303108,5.36125047 20.0650071,4.3929667 19.9176437,2.87668485 C19.7701669,1.36074911 20.8241893,0.159075845 22.2667151,0.0141736154 C23.7020884,-0.130036406 24.9673922,0.838593465 25.1148691,2.35452921 M23.8278809,2.48385675 C23.7472738,1.65724491 23.1717848,1.09863297 22.3799056,1.17846764 C21.5880264,1.25772547 21.1240249,1.92086083 21.204632,2.74735731 C21.2848984,3.57385378 21.8673128,4.13188888 22.6594191,4.05228494 C23.4516389,3.97314249 23.9082609,3.31035323 23.8278809,2.48385675" id="Fill-11" fill="inherit"></path>
        <polygon id="Fill-13" fill="inherit" points="27.312817 5.20628725 26.1238337 4.99435706 26.979702 0 28.476621 0.267110705 29.4030367 3.48354468 29.9105918 0.52276885 31.099802 0.735046089 30.2435934 5.72870906 28.8446694 5.47941345 27.8275176 2.20282462"></polygon>
        <polygon id="Fill-14" fill="currentColor" points="39.5589481 4.67550334 38.9717177 5.63015361 37.7075654 4.86191161 35.6424544 8.21945213 34.5829798 7.57521315 36.6478587 4.21813405 35.3775567 3.44527798 35.9646711 2.49074307"></polygon>
        <path d="M42.494028,11.2164299 C41.4171468,12.259565 39.8364351,12.1687293 38.8331994,11.1321798 C37.8255383,10.0907478 37.7857084,8.50657223 38.8623626,7.46343712 C39.9393572,6.42064264 41.5199555,6.51113776 42.5280706,7.55291034 C43.5309658,8.58968695 43.5707957,10.1732948 42.494028,11.2164299 M41.5949627,10.2872937 C42.1817438,9.71888894 42.254595,8.9256657 41.7012891,8.35408171 C41.1479833,7.78215708 40.3485494,7.82416862 39.7616548,8.39257336 C39.1748737,8.96131874 39.106902,9.7594244 39.6599809,10.331349 C40.2134002,10.9031601 41.0079547,10.8556984 41.5949627,10.2872937" id="Fill-15" fill="currentColor"></path>
        <path d="M44.788625,14.8492511 C46.2099337,14.3552321 47.6160626,15.0920912 48.1072946,16.468786 C48.4843928,17.5262391 48.2109282,18.8397166 47.0975526,19.5186546 L46.6351964,18.2217421 C47.0701604,17.913431 47.2010719,17.3673507 47.0157186,16.8483152 C46.7501291,16.1034554 45.9952479,15.7905241 45.2205074,16.0597329 C44.3040127,16.3781858 44.1032513,17.1729659 44.333231,17.8183233 C44.4945021,18.2703101 44.8548226,18.6010459 45.2763189,18.6790252 L44.9492113,17.7614164 L45.8651354,17.4429635 L46.6193318,19.5575316 L44.1269911,20.4240932 L43.8186015,19.5592219 L44.4384624,19.3441027 C44.2704574,19.2976758 43.5411421,19.0356789 43.1996537,18.0781791 C42.7178947,16.727853 43.3674304,15.3432701 44.788625,14.8492511" id="Fill-17" fill="inherit"></path>
        <polygon id="Fill-20" fill="inherit" points="48.463271 24.8523985 48.2560705 22.214328 47.4121625 22.2807421 47.523203 23.6949445 46.4823531 23.7762425 46.3714253 22.3626039 45.4292154 22.4365727 45.6361905 25.0745304 44.588013 25.156505 44.286118 21.3086611 49.2091026 20.9222418 49.5108848 24.7697474"></polygon>
        <polygon id="Fill-21" fill="inherit" points="44.3002594 27.3478166 44.5079431 26.1528022 49.5108848 26.9934935 49.2496875 28.4982842 46.0330805 29.4404874 48.9994941 29.939274 48.7915787 31.1342884 43.7885212 30.2934831 44.0328073 28.8870142 47.3094144 27.853553"></polygon>
        <polygon id="Fill-22" fill="inherit" points="45.4297581 36.4205599 46.5309104 33.9188572 45.7400587 33.5622709 45.1495423 34.9028812 44.1743775 34.4633598 44.7645482 33.1223996 43.8812518 32.7240541 42.7802147 35.2254069 41.7981339 34.7826194 43.404274 31.1342884 48.0180943 33.2146664 46.4114931 36.8629974"></polygon>
        <path d="M41.6109843,37.8698737 L41.9726075,37.4028572 L40.59453,36.3355371 L41.3440287,35.3685516 L45.2813117,38.4176806 L44.0089255,40.0598515 C43.333638,40.9316156 42.3468454,41.0674027 41.6551928,40.5314132 C41.233337,40.2047289 40.925014,39.6960104 41.0933245,38.9445798 L38.8125529,38.6360762 L39.6577419,37.5448939 L41.6109843,37.8698737 Z M43.271246,39.2818316 L43.6936701,38.73607 L42.8276838,38.0654298 L42.4049188,38.6108505 C42.0997779,39.0040079 42.1536464,39.3070573 42.4124194,39.5071585 C42.6822162,39.7163501 42.9661052,39.674989 43.271246,39.2818316 L43.271246,39.2818316 Z" id="Fill-23" fill="inherit"></path>
        <path d="M35.0805766,41.4752157 L36.1027341,40.6586177 L37.0949147,41.340846 L38.1392438,40.5068735 L37.6720558,39.4054027 L38.672268,38.6065176 L40.5541418,43.4349155 L39.4270084,44.3352266 L35.0805766,41.4752157 Z M39.13199,42.8159798 L39.1541616,42.7986054 L38.5943279,41.4912363 L37.975219,41.9851664 L39.13199,42.8159798 Z" id="Fill-25" fill="inherit"></path>
        <polygon id="Fill-26" fill="inherit" points="33.7819073 47.8222669 33.2787293 46.8205185 34.6106711 46.1653739 32.8413909 42.6432796 33.9577516 42.0935579 35.7270318 45.6156522 37.0653828 44.9564706 37.5685608 45.9583344"></polygon>
        <polygon id="Fill-27" fill="inherit" points="32.5925925 48.2114151 31.3580122 48.5694898 29.8558099 43.6966559 31.0903902 43.3389294"></polygon>
        <path d="M24.1447933,47.1866673 C24.0110011,45.6689593 25.076001,44.4774392 26.5129615,44.3470102 C27.9567366,44.2155425 29.2131117,45.1956062 29.346904,46.7133141 C29.4804691,48.231022 28.4154691,49.4230039 26.9715805,49.5541254 C25.5347335,49.6849006 24.2783584,48.7043752 24.1447933,47.1866673 M25.4328561,47.0697429 C25.5056581,47.8966392 26.0761492,48.4612926 26.868908,48.3888064 C27.6615532,48.3170128 28.1317569,47.6578273 28.0586141,46.8305847 C27.9856985,46.0036884 27.4080521,45.4393814 26.6155205,45.5118675 C25.8226481,45.5836611 25.3599404,46.2421541 25.4328561,47.0697429" id="Fill-28" fill="inherit"></path>
        <polygon id="Fill-30" fill="inherit" points="21.9596835 44.3837387 23.1382527 44.6056504 22.2449193 49.5657871 20.7616254 49.2867563 19.8700945 46.0784213 19.340403 49.0191264 18.1622844 48.7977904 19.0553924 43.837078 20.4418053 44.0979136 21.4224443 47.3669375"></polygon>
        <polygon id="Fill-31" fill="currentColor" points="9.95193664 44.6092801 10.5446081 43.6591714 11.795444 44.4386323 13.8790925 41.0972606 14.927905 41.7509872 12.8444875 45.0920125 14.1017919 45.8755145 13.5092359 46.8259697"></polygon>
        <path d="M7.02537977,38.3411364 C8.10704404,37.3030232 9.68744043,37.4012262 10.685699,38.4421776 C11.689064,39.4882378 11.721632,41.0723141 10.6399677,42.1104273 C9.55830343,43.1485405 7.97756661,43.0503375 6.97442852,42.0041637 C5.97628344,40.9629852 5.94371549,39.3792496 7.02537977,38.3411364 M7.92026064,39.2740078 C7.33086028,39.8402926 7.2542632,40.6326146 7.80496785,41.20696 C8.35555902,41.7815325 9.15534604,41.7431595 9.7447464,41.1768747 C10.3342602,40.6113846 10.4060913,39.8137267 9.85527315,39.2390407 C9.30468198,38.6648088 8.50988796,38.7085177 7.92026064,39.2740078" id="Fill-32" fill="currentColor"></path>
    </g>
</svg>
