<svg width="35px" height="25px" viewBox="324 23 35 25" version="1.1" xmlns="http://www.w3.org/2000/svg" xmlns:xlink="http://www.w3.org/1999/xlink">
    <path d="M357.080357,37.2857143 L325.741071,37.2857143 C324.778886,37.2857143 324,36.4868571 324,35.5 C324,34.5131429 324.778886,33.7142857 325.741071,33.7142857 L357.080357,33.7142857 C358.042543,33.7142857 358.821429,34.5131429 358.821429,35.5 C358.821429,36.4868571 358.042543,37.2857143 357.080357,37.2857143 L357.080357,37.2857143 Z M357.080357,26.5714286 L325.741071,26.5714286 C324.778886,26.5714286 324,25.7725714 324,24.7857143 C324,23.7988571 324.778886,23 325.741071,23 L357.080357,23 C358.042543,23 358.821429,23.7988571 358.821429,24.7857143 C358.821429,25.7725714 358.042543,26.5714286 357.080357,26.5714286 L357.080357,26.5714286 Z M325.741071,44.4285714 L357.080357,44.4285714 C358.042543,44.4285714 358.821429,45.2274286 358.821429,46.2142857 C358.821429,47.2011429 358.042543,48 357.080357,48 L325.741071,48 C324.778886,48 324,47.2011429 324,46.2142857 C324,45.2274286 324.778886,44.4285714 325.741071,44.4285714 L325.741071,44.4285714 Z" stroke="none" fill="#2D2D2D" fill-rule="evenodd"></path>
</svg>
