<svg width="106px" height="31px" viewBox="0 -1 106 31" version="1.1" xmlns="http://www.w3.org/2000/svg" xmlns:xlink="http://www.w3.org/1999/xlink">
    <g id="powered-by" stroke="none" stroke-width="1" fill="none" fill-rule="evenodd" transform="translate(0.000000, -0.000000)" opacity="0.20755597">
        <polygon id="Fill-196" fill="currentColor" points="9.03222252 15.2105675 2.23569987 15.2105675 2.23569987 18.5006519 6.43344281 18.5006519 6.43344281 20.3334703 2.23569987 20.3334703 2.23569987 23.8661246 9.03222252 23.8661246 9.03222252 25.6989429 0.0369706061 25.6989429 0.0369706061 13.3334216 9.03222252 13.3334216"></polygon>
        <polygon id="Fill-197" fill="currentColor" points="13.0739706 25.6990045 10.964107 25.6990045 10.964107 13.3334832 13.8291741 13.3334832 18.4489517 22.7623086 18.4489517 13.3334832 20.5591249 13.3334832 20.5591249 25.6990045 17.6494701 25.6990045 13.0739706 16.3585262"></polygon>
        <path d="M28.7540282,13.1128616 C31.5748174,13.1128616 33.7515624,14.8573328 34.5287502,17.5954785 L32.1299957,17.5954785 C31.5971112,16.00523 30.5307229,15.0337193 28.7094406,15.0337193 C26.1998362,15.0337193 24.5116976,16.9770485 24.5116976,19.5163362 C24.5116976,22.0556239 26.1998362,23.9986453 28.7094406,23.9986453 C30.5307229,23.9986453 31.5971112,23.0271346 32.1299957,21.4375017 L34.5287502,21.4375017 C33.7515624,24.1756474 31.5748174,25.9198108 28.7540282,25.9198108 C25.0891698,25.9198108 22.2241027,23.2481563 22.2241027,19.5163362 C22.2241027,15.7848239 25.0891698,13.1128616 28.7540282,13.1128616" id="Fill-198" fill="currentColor"></path>
        <path d="M42.0573466,15.0118634 C39.5254484,15.0118634 37.815016,16.9108651 37.815016,19.5163362 C37.815016,22.0996435 39.5254484,23.9986453 42.0573466,23.9986453 C44.5892448,23.9986453 46.2996772,22.0996435 46.2996772,19.5163362 C46.2996772,16.9327211 44.5892448,15.0118634 42.0573466,15.0118634 M42.0573466,13.0906979 C45.6776173,13.0906979 48.5872722,15.7623523 48.5872722,19.5163362 C48.5872722,23.2481563 45.6776173,25.9201186 42.0573466,25.9201186 C38.4370759,25.9201186 35.527421,23.2481563 35.527421,19.5163362 C35.527421,15.7848239 38.4370759,13.0906979 42.0573466,13.0906979" id="Fill-199" fill="currentColor"></path>
        <path d="M52.4510411,18.8317536 L54.4277609,18.8317536 C55.8050244,18.8317536 56.7153559,18.1914677 56.7153559,16.9989352 C56.7153559,15.8067106 55.8050244,15.1882806 54.4277609,15.1882806 L52.4510411,15.1882806 L52.4510411,18.8317536 Z M54.1168858,20.6864279 L52.4510411,20.6864279 L52.4510411,25.6991276 L50.2520022,25.6991276 L50.2520022,13.3336063 L54.6054923,13.3336063 C57.3374158,13.3336063 58.9143948,14.8351999 58.9143948,16.9770793 C58.9143948,18.1471402 58.4034945,19.7592447 56.4044808,20.3995306 L59.6692888,25.6991276 L57.0931125,25.6991276 L54.1168858,20.6864279 Z" id="Fill-200" fill="currentColor"></path>
        <polygon id="Fill-201" fill="currentColor" points="70.1745763 15.2105675 63.3780536 15.2105675 63.3780536 18.5006519 67.5757966 18.5006519 67.5757966 20.3334703 63.3780536 20.3334703 63.3780536 23.8661246 70.1745763 23.8661246 70.1745763 25.6989429 61.1793244 25.6989429 61.1793244 13.3334216 70.1745763 13.3334216"></polygon>
        <path d="M73.3057141,22.695879 C74.2163553,22.695879 74.949265,23.424512 74.949265,24.3301471 C74.949265,25.2351666 74.2163553,25.9637997 73.3057141,25.9637997 C72.395073,25.9637997 71.6621632,25.2351666 71.6621632,24.3301471 C71.6621632,23.424512 72.395073,22.695879 73.3057141,22.695879" id="Fill-202" fill="currentColor"></path>
        <path d="M81.6122105,17.3966205 C79.7909282,17.3966205 78.5251339,18.8098669 78.5251339,20.7088687 C78.5251339,22.6078704 79.7909282,24.0429728 81.6122105,24.0429728 C83.4334927,24.0429728 84.6995967,22.6078704 84.6995967,20.7088687 C84.6995967,18.8098669 83.4334927,17.3966205 81.6122105,17.3966205 M81.6122105,15.475455 C84.5664529,15.475455 86.9652074,17.6613541 86.9652074,20.7088687 C86.9652074,23.7557676 84.5664529,25.9638304 81.6122105,25.9638304 C78.6582776,25.9638304 76.281817,23.7557676 76.281817,20.7088687 C76.281817,17.6613541 78.6582776,15.475455 81.6122105,15.475455" id="Fill-203" fill="currentColor"></path>
        <path d="M94.3383043,17.6837025 L93.1833599,17.6837025 C91.7618185,17.6837025 90.8291931,18.5003749 90.8291931,20.7527652 L90.8291931,25.6989737 L88.6301542,25.6989737 L88.6301542,15.7406811 L90.7846055,15.7406811 L90.7846055,17.330314 C91.1620524,16.2264365 92.1615593,15.563679 93.5608069,15.563679 C93.8051102,15.563679 94.0717072,15.5858427 94.3383043,15.6298624 L94.3383043,17.6837025 Z" id="Fill-204" fill="currentColor"></path>
        <path d="M100.334633,24.0429112 C102.178209,24.0429112 103.444004,22.6078089 103.444004,20.7088071 C103.444004,18.7876416 102.178209,17.3525393 100.334633,17.3525393 C98.5133509,17.3525393 97.247247,18.7876416 97.247247,20.7088071 C97.247247,22.6078089 98.5133509,24.0429112 100.334633,24.0429112 L100.334633,24.0429112 Z M105.576471,15.7404348 L105.576471,26.4938517 C105.576471,28.0394649 104.798973,29.5410585 102.422513,29.5410585 L98.2247696,29.5410585 L98.2247696,27.7304039 L102.089344,27.7304039 C102.68911,27.7304039 103.355448,27.5761811 103.355448,26.670546 L103.355448,24.2196055 C102.822253,25.1911162 101.467593,25.9200571 100.001464,25.9200571 C97.1141033,25.9200571 94.9819459,23.755706 94.9819459,20.7088071 C94.9819459,17.6394366 97.0698252,15.4753934 99.9794801,15.4753934 C101.4453,15.4753934 102.822253,16.2261902 103.377432,17.2198647 C103.377432,16.9988429 103.355448,16.7559652 103.355448,16.4469041 L103.355448,15.7404348 L105.576471,15.7404348 Z" id="Fill-205" fill="currentColor"></path>
        <path d="M6.03888897,2.64048607 C6.03888897,3.10099509 5.95267354,3.48907953 5.78024009,3.80475103 C5.60780664,4.12042253 5.37539983,4.37481281 5.08301269,4.5679295 C4.79062554,4.76104618 4.45326081,4.90216779 4.07090839,4.99129857 C3.68855597,5.08042935 3.29121529,5.12499407 2.87887444,5.12499407 L1.92299816,5.12499407 L1.92299816,8.09971889 L0,8.09971889 L0,0.211684538 L2.92385686,0.211684538 C3.35868902,0.211684538 3.76540094,0.254392394 4.14400481,0.339809389 C4.52260868,0.425226384 4.85247641,0.562634271 5.1336179,0.752037173 C5.41475939,0.941440075 5.63592071,1.19025976 5.7971085,1.4985037 C5.95829628,1.80674764 6.03888897,2.18740462 6.03888897,2.64048607 L6.03888897,2.64048607 Z M4.1158908,2.65162737 C4.1158908,2.46593825 4.07840583,2.31367545 4.00343477,2.19483442 C3.92846371,2.07599338 3.82725429,1.98315021 3.69980348,1.91630213 C3.57235267,1.84945405 3.42803554,1.80488933 3.26684776,1.78260663 C3.10565997,1.76032394 2.93885186,1.74918276 2.76641841,1.74918276 L1.92299816,1.74918276 L1.92299816,3.60977843 L2.7326816,3.60977843 C2.91261215,3.60977843 3.08504301,3.59492352 3.24997935,3.56521327 C3.41491569,3.53550301 3.56298132,3.48351083 3.69418068,3.40923519 C3.82538004,3.33495954 3.92846371,3.23654578 4.00343477,3.11399096 C4.07840583,2.99143614 4.1158908,2.83731649 4.1158908,2.65162737 L4.1158908,2.65162737 Z M15.6594211,4.12227784 C15.6594211,4.74619328 15.5507147,5.31625032 15.3332986,5.83246608 C15.1158825,6.34868183 14.8141285,6.7906153 14.4280275,7.15827976 C14.0419266,7.52594422 13.5827357,7.81004431 13.0504411,8.01058856 C12.5181466,8.2111328 11.940878,8.31140343 11.3186182,8.31140343 C10.6963584,8.31140343 10.1209641,8.2111328 9.59241811,8.01058856 C9.06387212,7.81004431 8.60655549,7.52594422 8.22045451,7.15827976 C7.83435354,6.7906153 7.53259953,6.34868183 7.31518345,5.83246608 C7.09776736,5.31625032 6.98906095,4.74619328 6.98906095,4.12227784 C6.98906095,3.49093483 7.09776736,2.92087779 7.31518345,2.4120896 C7.53259953,1.90330141 7.83435354,1.47065225 8.22045451,1.11412915 C8.60655549,0.757606036 9.06387212,0.482790262 9.59241811,0.289673578 C10.1209641,0.0965568937 10.6963584,0 11.3186182,0 C11.940878,0 12.5181466,0.0965568937 13.0504411,0.289673578 C13.5827357,0.482790262 14.0419266,0.757606036 14.4280275,1.11412915 C14.8141285,1.47065225 15.1158825,1.90330141 15.3332986,2.4120896 C15.5507147,2.92087779 15.6594211,3.49093483 15.6594211,4.12227784 L15.6594211,4.12227784 Z M13.6014757,4.12227784 C13.6014757,3.78060986 13.5452482,3.46122936 13.4327916,3.16412677 C13.320335,2.86702418 13.1647724,2.6126339 12.9660991,2.40094831 C12.7674258,2.18926271 12.527522,2.02214501 12.2463805,1.89959019 C11.965239,1.77703537 11.655988,1.71575888 11.3186182,1.71575888 C10.9812484,1.71575888 10.6738717,1.77703537 10.3964787,1.89959019 C10.1190858,2.02214501 9.87918201,2.18926271 9.67676014,2.40094831 C9.47433827,2.6126339 9.31877564,2.86702418 9.2100676,3.16412677 C9.10135956,3.46122936 9.04700635,3.78060986 9.04700635,4.12227784 C9.04700635,4.47880095 9.10323381,4.80746576 9.2156904,5.10828213 C9.328147,5.40909851 9.48370962,5.66720251 9.68238294,5.88260189 C9.88105626,6.09800127 10.1190858,6.26697583 10.3964787,6.38953065 C10.6738717,6.51208547 10.9812484,6.57336196 11.3186182,6.57336196 C11.655988,6.57336196 11.9633648,6.51208547 12.2407577,6.38953065 C12.5181506,6.26697583 12.7580544,6.09800127 12.9604763,5.88260189 C13.1628982,5.66720251 13.320335,5.40909851 13.4327916,5.10828213 C13.5452482,4.80746576 13.6014757,4.47880095 13.6014757,4.12227784 L13.6014757,4.12227784 Z M25.5273565,8.09971889 L23.6268495,8.09971889 L22.0524651,2.76304028 L22.0187283,2.76304028 L20.4443438,8.09971889 L18.5325912,8.09971889 L16.272225,0.211684538 L18.341416,0.211684538 L19.6009236,5.45923281 L19.6346604,5.45923281 L21.0516064,0.211684538 L23.0533238,0.211684538 L24.4815154,5.45923281 L24.5152522,5.45923281 L25.797251,0.211684538 L27.7989683,0.211684538 L25.5273565,8.09971889 Z M28.7828771,8.09971889 L28.7828771,0.211684538 L34.1357843,0.211684538 L34.1357843,1.8271718 L30.6384017,1.8271718 L30.6384017,3.30896356 L33.9446091,3.30896356 L33.9446091,4.83532049 L30.6384017,4.83532049 L30.6384017,6.47309034 L34.3382052,6.47309034 L34.3382052,8.09971889 L28.7828771,8.09971889 Z M40.0340217,8.09971889 L38.3134444,4.96901599 L37.6611994,4.96901599 L37.6611994,8.09971889 L35.7719381,8.09971889 L35.7719381,0.211684538 L38.808251,0.211684538 C39.1906034,0.211684538 39.5635789,0.250678668 39.9271885,0.328668098 C40.2907982,0.406657528 40.6169174,0.538494825 40.905556,0.724183945 C41.1941946,0.909873064 41.4247272,1.15497902 41.5971606,1.45950918 C41.769594,1.76403934 41.8558095,2.14283946 41.8558095,2.59592091 C41.8558095,3.13070557 41.7096181,3.5800665 41.4172309,3.94401717 C41.1248438,4.30796785 40.7200061,4.56792872 40.2027058,4.72390758 L42.2831424,8.09971889 L40.0340217,8.09971889 Z M39.9553025,2.62934478 C39.9553025,2.44365566 39.9159433,2.29324973 39.8372237,2.17812248 C39.7585041,2.06299523 39.6572947,1.97386579 39.5335924,1.91073148 C39.4098901,1.84759718 39.2711958,1.80488933 39.1175051,1.78260663 C38.9638144,1.76032394 38.8157488,1.74918276 38.6733037,1.74918276 L37.6499538,1.74918276 L37.6499538,3.58749585 L38.5608477,3.58749585 C38.7182869,3.58749585 38.8794723,3.5744978 39.0444087,3.54850133 C39.209345,3.52250485 39.3592849,3.47608327 39.4942328,3.40923519 C39.6291807,3.3423871 39.7397614,3.24583021 39.8259781,3.11956161 C39.9121948,2.99329301 39.9553025,2.82988903 39.9553025,2.62934478 L39.9553025,2.62934478 Z M43.3907528,8.09971889 L43.3907528,0.211684538 L48.74366,0.211684538 L48.74366,1.8271718 L45.2462774,1.8271718 L45.2462774,3.30896356 L48.5524847,3.30896356 L48.5524847,4.83532049 L45.2462774,4.83532049 L45.2462774,6.47309034 L48.9460809,6.47309034 L48.9460809,8.09971889 L43.3907528,8.09971889 Z M57.8131576,4.13341913 C57.8131576,4.82418265 57.6838344,5.42023579 57.4251842,5.92159641 C57.1665341,6.42295703 56.8254209,6.83518069 56.4018343,7.15827976 C55.9782478,7.48137883 55.5003145,7.71905733 54.9680199,7.87132241 C54.4357254,8.02358749 53.8959418,8.09971889 53.3486531,8.09971889 L50.3798138,8.09971889 L50.3798138,0.211684538 L53.2586882,0.211684538 C53.8209712,0.211684538 54.3757488,0.276674755 54.9230375,0.406657138 C55.4703263,0.536639522 55.9576309,0.752035669 56.3849659,1.05285204 C56.812301,1.35366842 57.1571627,1.75660776 57.4195614,2.26168217 C57.6819602,2.76675657 57.8131576,3.39066265 57.8131576,4.13341913 L57.8131576,4.13341913 Z M55.8114402,4.13341913 C55.8114402,3.68776524 55.7383445,3.31824944 55.5921509,3.02486063 C55.4459573,2.73147182 55.2510355,2.49750704 55.0073795,2.32295927 C54.7637236,2.1484115 54.4863348,2.02400165 54.1752049,1.949726 C53.864075,1.87545036 53.5435785,1.83831309 53.2137058,1.83831309 L52.2578295,1.83831309 L52.2578295,6.45080775 L53.1687234,6.45080775 C53.5135903,6.45080775 53.8453323,6.41181362 54.1639593,6.33382419 C54.4825863,6.25583476 54.7637236,6.12771119 55.0073795,5.94944964 C55.2510355,5.77118808 55.4459573,5.53350957 55.5921509,5.23640698 C55.7383445,4.93930439 55.8114402,4.57164545 55.8114402,4.13341913 L55.8114402,4.13341913 Z M68.4288441,5.80461285 C68.4288441,6.2354116 68.3426287,6.59749996 68.1701952,6.89088876 C67.9977618,7.18427757 67.7691034,7.42009922 67.4842134,7.59836077 C67.1993234,7.77662233 66.8750784,7.9047459 66.5114687,7.98273533 C66.1478591,8.06072476 65.7748836,8.09971889 65.3925312,8.09971889 L62.2212711,8.09971889 L62.2212711,0.211684538 L65.3925312,0.211684538 C65.6999126,0.211684538 66.0147863,0.243251214 66.3371619,0.306385515 C66.6595374,0.369519816 66.9519202,0.477217889 67.2143189,0.629482967 C67.4767177,0.781748045 67.690382,0.987859876 67.8553183,1.24782464 C68.0202547,1.50778941 68.1027216,1.83831108 68.1027216,2.23939958 C68.1027216,2.6776259 67.9827697,3.03971426 67.7428623,3.3256755 C67.5029549,3.61163674 67.1880811,3.81774857 66.7982316,3.94401717 L66.7982316,3.96629976 C67.0231448,4.00343758 67.2349349,4.07214153 67.4336082,4.17241365 C67.6322815,4.27268577 67.8047124,4.40080934 67.9509059,4.5567882 C68.0970995,4.71276707 68.2133029,4.89473967 68.2995196,5.10271149 C68.3857364,5.3106833 68.4288441,5.54464808 68.4288441,5.80461285 L68.4288441,5.80461285 Z M66.247197,2.49564929 C66.247197,2.22825695 66.1441134,2.0332863 65.937943,1.91073148 C65.7317725,1.78817667 65.42627,1.72690018 65.0214263,1.72690018 L64.0767956,1.72690018 L64.0767956,3.35352873 L65.1113911,3.35352873 C65.4712522,3.35352873 65.7505152,3.28111106 65.9491886,3.13627354 C66.1478619,2.99143603 66.247197,2.77789675 66.247197,2.49564929 L66.247197,2.49564929 Z M66.5058459,5.62635218 C66.5058459,5.29953933 66.3821455,5.07300201 66.134741,4.94673341 C65.8873365,4.8204648 65.5574688,4.75733145 65.1451279,4.75733145 L64.0767956,4.75733145 L64.0767956,6.56222067 L65.1563735,6.56222067 C65.3063157,6.56222067 65.4618783,6.54922262 65.6230661,6.52322615 C65.7842538,6.49722967 65.9304452,6.45080809 66.0616446,6.38396 C66.192844,6.31711192 66.2996761,6.22241189 66.3821443,6.09985707 C66.4646125,5.97730225 66.5058459,5.81946887 66.5058459,5.62635218 L66.5058459,5.62635218 Z M73.7310645,4.75733145 L73.7310645,8.09971889 L71.8080664,8.09971889 L71.8080664,4.75733145 L68.8167359,0.211684538 L71.1445758,0.211684538 L72.8426619,3.1307029 L74.540748,0.211684538 L76.7898686,0.211684538 L73.7310645,4.75733145 Z" fill="currentColor"></path>
    </g>
</svg>
