<svg width="20px" height="20px" viewBox="1130 61 20 20" version="1.1" xmlns="http://www.w3.org/2000/svg" xmlns:xlink="http://www.w3.org/1999/xlink">
    <path d="M1143.84615,69.4615386 C1143.84615,67.9791592 1143.31932,66.7111415 1142.26563,65.6574503 C1141.21194,64.6037591 1139.94392,64.0769229 1138.46154,64.0769229 C1136.97916,64.0769229 1135.71114,64.6037591 1134.65745,65.6574503 C1133.60376,66.7111415 1133.07692,67.9791592 1133.07692,69.4615386 C1133.07692,70.9439179 1133.60376,72.211933 1134.65745,73.2656242 C1135.71114,74.3193154 1136.97916,74.8461543 1138.46154,74.8461543 C1139.94392,74.8461543 1141.21194,74.3193154 1142.26563,73.2656242 C1143.31932,72.211933 1143.84615,70.9439179 1143.84615,69.4615386 L1143.84615,69.4615386 Z M1150,79.4615383 C1150,79.8782071 1149.84776,80.2387804 1149.54327,80.5432691 C1149.23878,80.8477579 1148.87821,81 1148.46154,81 C1148.02885,81 1147.66827,80.8477579 1147.37981,80.5432691 L1143.25721,76.4326909 C1141.82291,77.4262871 1140.22437,77.9230771 1138.46154,77.9230771 C1137.3157,77.9230771 1136.21996,77.7007221 1135.17428,77.2560094 C1134.1286,76.8112967 1133.22717,76.2103413 1132.46995,75.4531243 C1131.71274,74.69591 1131.11178,73.7944769 1130.66707,72.748798 C1130.22235,71.7031191 1130,70.6073767 1130,69.4615386 C1130,68.3156977 1130.22235,67.2199554 1130.66707,66.1742791 C1131.11178,65.1286002 1131.71274,64.2271671 1132.46995,63.4699501 C1133.22717,62.7127359 1134.1286,62.1117804 1135.17428,61.667065 C1136.21996,61.2223523 1137.3157,61 1138.46154,61 C1139.60738,61 1140.70312,61.2223523 1141.7488,61.667065 C1142.79448,62.1117804 1143.69591,62.7127359 1144.45313,63.4699501 C1145.21034,64.2271671 1145.8113,65.1286002 1146.25601,66.1742791 C1146.70072,67.2199554 1146.92308,68.3156977 1146.92308,69.4615386 C1146.92308,71.2243675 1146.42629,72.8229091 1145.43269,74.2572119 L1149.55529,78.3798075 C1149.85176,78.6762834 1150,79.0368566 1150,79.4615383 L1150,79.4615383 Z" stroke="none" fill="#ccc" fill-rule="evenodd"></path>
</svg>
