<svg width="17px" height="27px" viewBox="24 20 17 27" version="1.1" xmlns="http://www.w3.org/2000/svg" xmlns:xlink="http://www.w3.org/1999/xlink">
    <path d="M39.2903667,32.71875 L26.7903646,21.3255208 C26.5733496,21.1085042 26.3237862,21 26.0416667,21 C25.7595471,21 25.5099837,21.1085042 25.2929687,21.3255208 C25.0976553,21.5208333 25,21.7649708 25,22.0579417 C25,22.3509125 25.0976553,22.59505 25.2929687,22.7903667 L37.0442708,33.5 L25.2929687,44.2096354 C25.0976553,44.4049488 25,44.6490871 25,44.9420575 C25,45.2350275 25.0976553,45.4791658 25.2929687,45.6744792 C25.5099837,45.8914941 25.7595471,46 26.0416667,46 C26.3237862,46 26.5733496,45.8914941 26.7903646,45.6744792 L39.2903667,34.28125 C39.3988708,34.1727417 39.48025,34.0533875 39.5345042,33.923175 C39.5887583,33.7929667 39.6050333,33.6519125 39.5833333,33.5 C39.6050333,33.3480875 39.5887583,33.2070333 39.5345042,33.076825 C39.48025,32.9466125 39.3988708,32.8272583 39.2903667,32.71875 L39.2903667,32.71875 Z" stroke="currentColor" stroke-width="1" fill="currentColor" fill-rule="evenodd" transform="translate(32.296317, 33.500000) rotate(-180.000000) translate(-32.296317, -33.500000) "></path>
</svg>
