<svg width="16px" height="26px" viewBox="-1 -1 16 26" version="1.1" xmlns="http://www.w3.org/2000/svg" xmlns:xlink="http://www.w3.org/1999/xlink">
    <path d="M14.2903667,11.71875 L1.79036458,0.325520833 C1.57334958,0.108504167 1.32378625,-7.10542736e-15 1.04166667,-7.10542736e-15 C0.759547083,-7.10542736e-15 0.50998375,0.108504167 0.29296875,0.325520833 C0.0976552917,0.520833333 -9.23705556e-14,0.764970833 -9.23705556e-14,1.05794167 C-9.23705556e-14,1.3509125 0.0976552917,1.59505 0.29296875,1.79036667 L12.0442708,12.5 L0.29296875,23.2096354 C0.0976552917,23.4049487 -9.23705556e-14,23.6490871 -9.23705556e-14,23.9420575 C-9.23705556e-14,24.2350275 0.0976552917,24.4791658 0.29296875,24.6744792 C0.50998375,24.8914941 0.759547083,25 1.04166667,25 C1.32378625,25 1.57334958,24.8914941 1.79036458,24.6744792 L14.2903667,13.28125 C14.3988708,13.1727417 14.48025,13.0533875 14.5345042,12.923175 C14.5887583,12.7929667 14.6050333,12.6519125 14.5833333,12.5 C14.6050333,12.3480875 14.5887583,12.2070333 14.5345042,12.076825 C14.48025,11.9466125 14.3988708,11.8272583 14.2903667,11.71875 L14.2903667,11.71875 Z" stroke="none" fill="currentColor" fill-rule="evenodd" transform="translate(7.296317, 12.500000) rotate(-180.000000) translate(-7.296317, -12.500000) "></path>
</svg>
