<svg width="81px" height="81px" viewBox="600 231 81 81" version="1.1" xmlns="http://www.w3.org/2000/svg" xmlns:xlink="http://www.w3.org/1999/xlink">
    <path d="M640.5,231 C618.041498,231 600,249.041498 600,271.5 C600,293.958502 618.041498,312 640.5,312 C662.958502,312 681,293.958502 681,271.5 C681,249.041498 662.958502,231 640.5,231 L640.5,231 Z M656.371114,274.575939 L634.611101,289.213758 C632.978229,290.31218 630.621185,289.945649 629.533764,288.116507 C629.170517,287.567296 628.989474,286.835405 628.989474,286.103514 L628.989474,256.827876 C628.989474,254.814883 630.621185,253.168421 632.616143,253.168421 C633.341476,253.168421 634.06681,253.351101 634.611101,253.717632 L656.371114,268.355451 C658.002825,269.452702 658.547116,271.831055 657.277491,273.478688 C657.096448,273.844048 656.733201,274.210579 656.371114,274.575939 L656.371114,274.575939 Z" id="video-play" stroke="none" fill="#FFFFFF" fill-rule="evenodd"></path>
</svg>
